<svg width="26" height="27" viewBox="0 0 26 27" fill="none" xmlns="http://www.w3.org/2000/svg">
<path fill-rule="evenodd" clip-rule="evenodd" d="M2.10913 7.90452C2.67547 8.48245 3.43058 9.06038 4.1857 9.63831C4.37448 9.83095 6.07348 11.1795 6.26226 11.3721C6.63982 10.0236 7.39493 9.06038 8.15005 8.2898C8.90516 7.51923 9.84906 6.74865 10.9817 6.36337C13.4359 5.40015 16.2675 5.97808 18.1553 7.51923C18.3441 7.71187 18.3441 7.71187 18.5329 7.90452L22.1197 4.24428C21.9309 4.05164 21.3646 3.47371 20.987 3.28107C16.4563 -0.186521 10.0378 0.00612289 5.50715 3.66635C4.75203 4.24428 4.1857 4.82222 3.61936 5.59279C3.2418 5.97808 2.29791 7.32658 2.10913 7.90452Z" fill="#E43E2B"/>
<path fill-rule="evenodd" clip-rule="evenodd" d="M2.10913 19.6558C2.10913 20.2337 3.05302 21.5822 3.43058 22.1602C5.12959 24.2793 7.58371 25.8204 10.4154 26.591C13.4359 27.3616 17.2114 26.9763 19.8543 25.4351C20.2319 25.2425 21.7421 24.2793 21.9309 23.894L19.4768 21.7749C19.288 21.7749 19.0992 21.5822 18.9104 21.3896L18.7217 21.197C18.5329 21.197 18.5329 21.0043 18.3441 21.0043C18.1553 20.8117 18.1553 20.619 17.7778 20.619C17.589 20.8117 17.4002 21.0043 17.0226 21.0043C14.5685 22.3528 11.3593 22.1602 9.09394 20.4264C8.52761 19.8484 8.52761 19.8484 7.96127 19.2705C7.58371 19.0779 7.20616 18.4999 7.01738 18.1147C6.63982 17.5367 6.26226 16.5735 6.26226 16.3809C5.50715 16.9588 4.75203 17.5367 4.1857 18.1147C3.80814 18.3073 2.29791 19.6558 2.10913 19.6558Z" fill="#2BA24C"/>
<path fill-rule="evenodd" clip-rule="evenodd" d="M17.776 20.619C18.1535 20.619 18.1535 20.8116 18.3423 21.0043C18.5311 21.0043 18.5311 21.1969 18.7199 21.1969L18.9087 21.3895C19.0974 21.5822 19.2862 21.7748 19.475 21.7748L21.9291 23.8939C22.4955 23.5086 23.6281 22.1601 23.8169 21.5822C24.3832 20.8116 24.7608 19.8484 25.1384 18.6925C25.5159 17.7293 25.7047 16.5735 25.8935 15.2249C25.8935 14.647 25.8935 11.95 25.5159 11.3721H13.4341V16.5735H20.4189C20.6077 17.1514 19.8526 18.4999 19.475 18.8852C19.0974 19.4631 18.7199 19.8484 18.3423 20.2337C18.1535 20.4263 17.9648 20.619 17.776 20.619Z" fill="#3C7CED"/>
<path fill-rule="evenodd" clip-rule="evenodd" d="M2.10774 19.6558C2.29651 19.6558 3.80674 18.3073 4.1843 18.1147C4.75064 17.5367 5.50575 16.9588 6.26087 16.3809C6.07209 15.8029 5.88331 15.4176 5.88331 13.8765C5.88331 13.1059 6.07209 11.9501 6.26087 11.3721C6.07209 11.1795 4.37308 9.83098 4.1843 9.63833C3.42919 9.0604 2.67407 8.48247 2.10774 7.90454C1.73018 8.28983 1.16384 10.0236 0.975063 10.6016C0.597505 12.7206 0.597505 15.0324 0.975063 17.1514C1.16384 17.7294 1.73018 19.4632 2.10774 19.6558Z" fill="#F0B401"/>
</svg>
